Coordinates
datacolumns 6
datarows 126
range 0 1.25
inDegrees=yes
Units are S.I. units (second, meters, Newtons, ...)
If the header above contains a line with 'inDegrees', this indicates whether rotational values are in degrees (yes) or radians (no).
endheader
time	foot_tx	hip_flexion_r	knee_angle_r	ankle_angle_r	lumbar
0	0.24411943	68.8638944	-71.56490819	0.06737177	-9.81227303
0.01	0.24410233	68.88705261	-71.54731811	0.05859625	-9.95442133
0.02	0.24409264	68.93535773	-71.52528626	0.04561372	-10.08474942
0.03	0.24408128	68.97497957	-71.49970221	0.03250952	-10.2442956
0.04	0.24406742	69.00492052	-71.47170437	0.02024625	-10.43444664
0.05	0.24405491	69.02438047	-71.43970257	0.00784251	-10.6566626
0.06	0.24404455	69.04063487	-71.4072832	-0.00342341	-10.9031564
0.07	0.24403367	69.05777143	-71.37474058	-0.0135413	-11.17000568
0.08	0.24401928	69.08537414	-71.34520163	-0.02146349	-11.44695064
0.09	0.24400944	69.13073479	-71.31906839	-0.02809609	-11.72635394
0.1	0.24399512	69.19562676	-71.29798437	-0.03197336	-12.00681498
0.11	0.24398187	69.28126906	-71.28081835	-0.03403419	-12.28768255
0.12	0.24396744	69.38867619	-71.26724147	-0.03423471	-12.56854509
0.13	0.24395347	69.51651678	-71.25660832	-0.0326354	-12.85167866
0.14	0.24393686	69.66505975	-71.24791876	-0.02947787	-13.13766756
0.15	0.24391695	69.8339563	-71.24131036	-0.02431693	-13.42733269
0.16	0.24389543	70.02061615	-71.23517026	-0.01784839	-13.72416479
0.17	0.2438683	70.22573675	-71.23082843	-0.0090697	-14.02674534
0.18	0.24383718	70.44701043	-71.22706755	0.00126693	-14.3376255
0.19	0.24380722	70.68548631	-71.22338245	0.01226454	-14.65560915
0.2	0.24377644	70.94100506	-71.21904928	0.02346977	-14.98275371
0.21	0.24375233	71.21446367	-71.21144361	0.03251458	-15.32065533
0.22	0.24373802	71.50898879	-71.1999892	0.03832099	-15.66796241
0.23	0.24372597	71.82712159	-71.18455536	0.04101463	-16.02454475
0.24	0.2437276	72.19966152	-71.16367747	0.03646674	-16.35444431
0.25	0.24370854	72.54319196	-71.14373785	0.03864791	-16.75880696
0.26	0.24370328	72.95847578	-71.1207141	0.03537491	-17.11475858
0.27	0.24369084	73.3912836	-71.09694078	0.035274	-17.48831493
0.28	0.24367267	73.84664356	-71.07340605	0.03927149	-17.87285713
0.29	0.2436463	74.32773333	-71.04745537	0.04632115	-18.26524939
0.3	0.24360892	74.86917685	-71.0195222	0.0544712	-18.62189135
0.31	0.24356914	75.44319383	-70.98667439	0.06489737	-18.9731494
0.32	0.24349705	76.05456594	-70.9572733	0.08473377	-19.30960797
0.33	0.24342124	76.70510081	-70.92461942	0.1086079	-19.62614425
0.34	0.24333545	77.39917001	-70.89144791	0.13837667	-19.91510645
0.35	0.24324415	78.13718279	-70.85812937	0.17428958	-20.17244301
0.36	0.24315366	78.92185109	-70.82394053	0.21586381	-20.39036909
0.37	0.24306139	79.75388842	-70.78917667	0.26399141	-20.5637176
0.38	0.24297221	80.63649132	-70.75386835	0.31865022	-20.68446715
0.39	0.24286598	81.56248223	-70.72333327	0.38535004	-20.75876632
0.4	0.24275811	82.53376684	-70.69274472	0.46101731	-20.78307385
0.41	0.24264303	83.54923822	-70.66460597	0.54846863	-20.75655392
0.42	0.24251498	84.60992447	-70.63976796	0.65046947	-20.67481135
0.43	0.242392	85.71158245	-70.61464823	0.76590389	-20.53657416
0.44	0.24228175	86.85485352	-70.58754859	0.89587948	-20.33417593
0.45	0.24221038	88.03291622	-70.55358453	1.03846545	-20.06820449
0.46	0.24220862	89.23596372	-70.50850529	1.19178345	-19.74329135
0.47	0.24232051	90.45218949	-70.44556807	1.35161239	-19.3671359
0.48	0.24259859	91.66531717	-70.35534922	1.51154851	-18.95376228
0.49	0.24308408	92.86133904	-70.2353599	1.6686623	-18.51444229
0.5	0.24380973	94.02169491	-70.07938495	1.81781333	-18.06728564
0.51	0.2447591	95.13562082	-69.89154889	1.96099115	-17.62022276
0.52	0.24580648	96.1737318	-69.69533346	2.11841039	-17.20453589
0.53	0.24674081	97.12152898	-69.51741813	2.31619834	-16.83113589
0.54	0.24723983	97.96327255	-69.40815048	2.60087619	-16.50946107
0.55	0.24714656	98.68096021	-69.38907962	2.9926305	-16.25130733
0.56	0.24660672	99.26449759	-69.44232451	3.46992891	-16.05933665
0.57	0.24591685	99.71507636	-69.52823925	3.98907814	-15.92347474
0.58	0.24530083	100.0366937	-69.61582832	4.51547204	-15.8319267
0.59	0.2448486	100.2392371	-69.68953176	5.03292058	-15.76502546
0.6	0.24458399	100.3291452	-69.73929365	5.53339901	-15.70824526
0.61	0.24447708	100.3153331	-69.75980752	6.0152207	-15.64636437
0.62	0.24449467	100.2234964	-69.74227946	6.47443869	-15.5429287
0.63	0.24459534	100.0017002	-69.68230688	6.91529103	-15.46544673
0.64	0.24475221	99.70546113	-69.56727619	7.32970426	-15.33942119
0.65	0.24494264	99.31848705	-69.38782764	7.71571156	-15.18654043
0.66	0.24514614	98.84536725	-69.13491936	8.07015918	-15.00120551
0.67	0.24534251	98.28322994	-68.80082494	8.39101686	-14.78742226
0.68	0.24552656	97.6356459	-68.37679395	8.67384174	-14.54135423
0.69	0.24568871	96.90172332	-67.85786897	8.91690459	-14.26551257
0.7	0.24582989	96.07428375	-67.24324258	9.12012835	-13.97071173
0.71	0.24595895	95.155129	-66.52870762	9.27985919	-13.65760228
0.72	0.24607682	94.13186022	-65.71990286	9.39903382	-13.34522896
0.73	0.24619009	93.00559159	-64.81902143	9.47717279	-13.03668824
0.74	0.24631022	91.76369486	-63.83458852	9.51734104	-12.75163358
0.75	0.24644082	90.40559855	-62.7724035	9.5219787	-12.49498433
0.76	0.2465865	88.92433774	-61.6389677	9.49460505	-12.27705809
0.77	0.24674911	87.32301033	-60.43758214	9.43743589	-12.09486289
0.78	0.24692811	85.60360412	-59.16958532	9.35207941	-11.94621868
0.79	0.24712737	83.76993792	-57.83110744	9.23677979	-11.82632765
0.8	0.24732493	81.84065751	-56.43145644	9.09686169	-11.71430727
0.81	0.24753449	79.81401139	-54.96390115	8.92769356	-11.61347232
0.82	0.24774405	77.69979646	-53.43847375	8.73431727	-11.51590982
0.83	0.24794891	75.49803088	-51.86454554	8.52156399	-11.42615968
0.84	0.24814623	73.22081898	-50.24885165	8.29210445	-11.33523588
0.85	0.24833516	70.87616405	-48.59520264	8.04754539	-11.23695095
0.86	0.24851533	68.46711105	-46.90523544	7.78878581	-11.12939773
0.87	0.24868625	66.00233605	-45.17887906	7.51540092	-11.00495126
0.88	0.24885033	63.48511233	-43.41858558	7.22797668	-10.8634352
0.89	0.24900946	60.92965695	-41.62459493	6.92536014	-10.69205499
0.9	0.24915985	58.33892138	-39.80263613	6.61019157	-10.49245264
0.91	0.24930288	55.72339728	-37.95770858	6.28382189	-10.26034725
0.92	0.24944484	53.08810243	-36.09428029	5.9470645	-9.99897735
0.93	0.24957615	50.4457581	-34.21819305	5.6019734	-9.70398675
0.94	0.24969325	47.80605516	-32.33623811	5.25020352	-9.37857308
0.95	0.24976602	45.20216958	-30.45581821	4.89520681	-8.98953439
0.96	0.24979064	42.63706754	-28.58781274	4.5399683	-8.55773781
0.97	0.24974361	40.13309898	-26.74396255	4.18948594	-8.07188574
0.98	0.24961328	37.71630877	-24.93863509	3.8483805	-7.52306845
0.99	0.24938691	35.39770986	-23.1877467	3.52287759	-6.92376498
1	0.24906812	33.20643968	-21.50563264	3.21720174	-6.25749743
1.01	0.24866389	31.14910278	-19.90867241	2.93577774	-5.54869854
1.02	0.24819143	29.23759239	-18.4077479	2.68084491	-4.80264326
1.03	0.24767216	27.47316842	-17.01029715	2.45338775	-4.03522873
1.04	0.24712653	25.85768422	-15.72060602	2.25338952	-3.25573305
1.05	0.24658147	24.37991719	-14.5374357	2.07864569	-2.4850185
1.06	0.24605919	23.03520432	-13.45495127	1.92533747	-1.7283129
1.07	0.24557025	21.81181506	-12.46724391	1.79099405	-0.99680195
1.08	0.24512983	20.69404148	-11.56527488	1.67174117	-0.30314992
1.09	0.24473601	19.67795642	-10.73813148	1.56362939	0.35881818
1.1	0.24438673	18.74714296	-9.97592847	1.46377242	0.9800553
1.11	0.2440688	17.89453576	-9.26845608	1.3694861	1.56560666
1.12	0.2437638	17.10838683	-8.60828197	1.28042294	2.11408698
1.13	0.24345454	16.37978113	-7.98947273	1.19684819	2.62819954
1.14	0.24311464	15.70238764	-7.40832219	1.12101877	3.11559758
1.15	0.24274122	15.07133584	-6.86651295	1.05580671	3.57803682
1.16	0.24234201	14.48553729	-6.36621884	1.00361211	4.02168505
1.17	0.24192201	13.94480355	-5.9176375	0.97077914	4.4480518
1.18	0.24152489	13.45604818	-5.52738812	0.95830615	4.86278306
1.19	0.24118713	13.04098433	-5.20643358	0.96854099	5.28672246
1.2	0.2409674	12.66503881	-4.95834123	1.00150073	5.67254928
1.21	0.24093408	12.34374541	-4.78463331	1.05204825	6.03302571
1.22	0.2411496	12.12453776	-4.68580961	1.11248433	6.41850345
1.23	0.24168302	11.94378113	-4.63826294	1.17017294	6.76332978
1.24	0.24260256	11.80811408	-4.62425547	1.20958049	7.07455567
1.25	0.24396576	11.70637355	-4.62194726	1.21516671	7.34234064
